<svg xmlns="http://www.w3.org/2000/svg" xmlns:xlink="http://www.w3.org/1999/xlink" width="200" height="200" viewBox="0 0 200 200" fill="none"><g opacity="1" transform="translate(0 0)  rotate(0)"><mask id="bg-mask-0" fill="white"><use xlink:href="#path_0"></use></mask><g mask="url(#bg-mask-0)" ><path id="路径 1" fill-rule="evenodd" style="fill:#FE4E50" opacity="1" d="M128.13 155.973C131.35 155.663 133.71 152.793 133.4 149.573C133.09 146.343 130.22 143.983 126.99 144.293C115.61 145.413 104.75 145.063 94.7496 143.243C86.7796 141.793 79.3396 139.433 72.5996 136.233C66.7396 133.433 62.4196 130.473 59.6096 128.223L125.76 62.0731C127.42 60.4331 128.32 58.2431 128.32 55.9031C128.32 53.5731 127.4 51.3631 125.76 49.7231C102.64 26.6031 69.5896 16.0931 37.3596 21.6031L36.9696 21.6631C25.5096 23.6331 16.4996 32.6331 14.5696 44.1031C10.4296 68.5531 15.4096 93.5731 28.5896 114.593C30.3096 117.343 33.9496 118.163 36.6796 116.443C39.4296 114.723 40.2496 111.093 38.5396 108.363C26.8796 89.8031 22.4796 67.6731 26.1296 46.0531C27.2496 39.5131 32.3796 34.3331 38.9496 33.2231L39.3396 33.1631C66.8396 28.4531 95.0196 36.9531 115.33 55.9331L47.0096 124.253C44.8196 126.443 44.7096 129.923 46.7196 132.243C46.9896 132.563 53.4796 139.943 66.8596 146.463C74.5696 150.233 83.0696 152.993 92.1296 154.663C99.1996 155.973 106.62 156.643 114.32 156.643C118.81 156.643 123.42 156.403 128.13 155.973Z"></path><path id="路径 2" fill-rule="evenodd" style="fill:#FF9A4C" opacity="1" d="M148.811 180.079L185.391 143.519C187.671 141.229 187.671 137.519 185.391 135.239C183.101 132.949 179.391 132.949 177.111 135.239L153.551 158.789C155.391 143.559 155.291 128.539 153.241 113.909C150.841 96.7987 146.251 83.8687 142.831 76.0587C141.541 73.0887 138.081 71.7387 135.121 73.0287C132.151 74.3187 130.801 77.7687 132.091 80.7387C135.231 87.8887 139.411 99.7287 141.641 115.529C144.321 134.629 143.421 154.529 138.941 174.669C138.401 177.209 139.571 179.829 141.851 181.079C142.731 181.559 143.711 181.799 144.671 181.799C146.171 181.799 147.671 181.189 148.811 180.079Z"></path><path id="路径 3" fill-rule="evenodd" style="fill:#FFD34C" opacity="1" d="M56.8786 74.587C62.7086 74.587 67.4386 69.857 67.4386 64.027C67.4386 60.247 65.4286 56.757 62.1586 54.877C58.8886 52.987 54.8586 52.987 51.5886 54.877C48.3186 56.757 46.3086 60.247 46.3086 64.027C46.3086 69.857 51.0386 74.587 56.8786 74.587Z"></path></g></g><defs><rect id="path_0" x="0" y="0" width="200" height="200" /></defs></svg>